<?xml version="1.0" encoding="UTF-8"?>
<svg id="Capa_2" data-name="Capa 2" xmlns="http://www.w3.org/2000/svg" viewBox="0 0 4121.4 1007.58">
  <defs>
    <style>
      .cls-1 {
        fill: #e76a80;
      }

      .cls-1, .cls-2, .cls-3, .cls-4, .cls-5 {
        stroke-width: 0px;
      }

      .cls-6 {
        fill: none;
        stroke: #fff;
        stroke-miterlimit: 10;
        stroke-width: 23.92px;
      }

      .cls-2 {
        fill: #fe10dc;
        opacity: .22;
      }

      .cls-7 {
        font-family: Poppins-Light, Poppins;
        font-size: 55.09px;
        font-weight: 300;
        letter-spacing: 1.2em;
      }

      .cls-7, .cls-4 {
        fill: #fff;
      }

      .cls-3 {
        fill: #fffc38;
      }

      .cls-5 {
        fill: #26274e;
      }
    </style>
  </defs>
  <g id="Capa_1-2" data-name="Capa 1">
    <g>
      <path class="cls-4" d="M277.67,0c38.53-.11,74.92,6.91,109.07,21.18,34.15,14.23,63.66,33.64,88.52,58.26,24.96,24.53,44.69,53.75,59.25,87.52,14.56,33.82,21.86,69.81,21.97,108.02-29.21.08-54.49-20.24-61.35-49.02-2.96-12.41-7.08-24.48-12.31-36.26-11.94-26.76-27.91-50.07-48-69.88-20.09-19.81-43.72-35.55-70.76-47.27-27.13-11.67-55.88-17.51-86.24-17.43-30.46.09-59.13,6.09-86.19,17.92-27.01,11.87-50.51,27.75-70.49,47.67-19.98,19.93-35.86,43.33-47.6,70.15-11.79,26.92-17.67,55.45-17.58,85.54l.2,71.74,150.18-.42c.09,30.47-24.25,55.23-54.37,55.32l-95.65.27-4.75,418.94c.09,31.09-20.82,53.15-51.57,53.24L.37,276.56c-.11-38.21,7-74.24,21.36-108.14,14.41-33.86,33.93-63.19,58.75-87.86,24.72-24.76,53.97-44.33,87.71-58.76C201.88,7.33,238.37.11,277.67,0"/>
      <path class="cls-4" d="M388.43,716.67c22.79.06,44.24-3.89,64.3-11.86,20.14-7.93,38.3-18.77,54.53-32.39,16.19-13.66,29.56-29.91,40.14-48.95,10.5-18.96,17.63-39.75,21.3-62.36l-323.63-.92-80.93-.23.06-22.27c.09-30.92,5.99-60.05,17.76-87.35,11.77-27.3,27.72-50.88,47.89-70.74,20.09-19.86,43.94-35.55,71.55-47.05,27.6-11.54,57.02-17.21,88.16-17.12,31.77.09,61.26,5.93,88.49,17.62,27.27,11.66,50.91,27.48,70.89,47.45,20.06,19.98,35.84,43.65,47.49,71.01,11.61,27.36,17.35,56.53,17.27,87.45-.09,31.54-6,60.78-17.76,87.81-11.8,27.03-27.71,50.42-47.89,70.32-20.09,19.82-43.83,35.55-71.16,47.01-27.29,11.54-56.82,17.25-88.59,17.16-24.54-.07-48.22-4.15-70.95-12.25-22.77-8.09-43.56-18.96-62.43-32.72-18.83-13.72-35.25-30.1-49.29-49.17-14-19.07-24.86-39.95-32.64-62.51,27.38.08,53.12,13.55,68.79,36.29,12.1,17.64,27.17,32.7,45.19,45.18,29.3,20.31,63.13,30.48,101.46,30.59M389.44,359.97c-22.13-.06-43.42,3.89-63.87,11.86-20.37,7.97-38.69,18.77-54.92,32.39-16.19,13.66-29.56,30.1-40.14,49.42-10.5,19.27-17.63,39.91-21.3,61.9l359.62,1.02c-3.55-22.01-10.56-42.69-20.95-62.02-10.47-19.37-23.74-35.89-39.86-49.64-16.15-13.71-34.26-24.61-54.35-32.7-20.02-8.09-41.44-12.16-64.23-12.23"/>
      <path class="cls-4" d="M891.69,313.99c30.56-.09,59.31,5.74,86.33,17.55,27.02,11.85,50.87,27.96,71.59,48.44,20.76,20.44,37.17,44.02,49.21,70.74,12.08,26.72,18.14,55.23,18.22,85.53l.63,222.94c-24.85.07-44.99-20.26-45.06-45.35l-.5-177.46c-.07-24.32-4.95-47.35-14.6-69.06-9.65-21.67-22.56-40.47-38.8-56.48-16.24-16.01-35.3-28.74-57.19-38.21-21.93-9.43-45.16-14.16-69.7-14.09-24.62.07-47.79,4.92-69.66,14.48-21.84,9.6-40.83,22.43-56.97,38.53-16.15,16.11-28.99,34.98-38.48,56.7-9.53,21.76-14.24,44.82-14.17,69.14l.5,177.46c.07,25.09-19.99,45.53-44.84,45.6l-.63-222.94c-.09-30.3,5.66-58.85,17.27-85.63,11.65-26.79,27.43-50.46,47.49-71.01,19.98-20.59,43.62-36.84,70.89-48.84,27.23-11.97,56.72-17.96,88.49-18.05"/>
      <g>
        <g>
          <path class="cls-4" d="M1871.53,798.71l-.09.18.14-49.32c0-2.1-.07-4.19-.17-6.27l44.99.13c.07,2.08.11,4.17.11,6.27l-.73,257.88c-24.85-.07-44.88-17.43-44.82-38.81l.37-131.96.08.47c.93-12.62.81-25.91.11-38.57Z"/>
          <path class="cls-4" d="M1871.53,798.71l-.09.18.14-49.32c0-2.1-.07-4.19-.17-6.27l44.99.13c.07,2.08.11,4.17.11,6.27l-.73,257.88c-24.85-.07-44.88-17.43-44.82-38.81l.37-131.96.08.47c.93-12.62.81-25.91.11-38.57Z"/>
          <path class="cls-4" d="M1871.53,798.71l-.09.18.14-49.32c0-2.1-.07-4.19-.17-6.27l44.99.13c.07,2.08.11,4.17.11,6.27l-.73,257.88c-24.85-.07-44.88-17.43-44.82-38.81l.37-131.96.08.47c.93-12.62.81-25.91.11-38.57Z"/>
        </g>
        <path class="cls-4" d="M1888.21,773.77c30.56.09,59.31-5.74,86.33-17.55,27.02-11.85,50.87-27.96,71.59-48.44,20.76-20.44,37.17-44.02,49.21-70.74,12.08-26.72,18.14-55.23,18.22-85.53l.63-222.94c-24.85-.07-44.99,20.26-45.06,45.35l-.5,177.46c-.07,24.32-4.95,47.35-14.6,69.06-9.65,21.67-22.56,40.47-38.8,56.48-16.24,16.01-35.3,28.74-57.19,38.21-21.93,9.43-45.16,14.16-69.7,14.09-24.62-.07-47.79-4.92-69.66-14.48-21.84-9.6-40.83-22.43-56.97-38.53-16.15-16.11-28.99-34.98-38.48-56.7-9.53-21.76-14.24-44.82-14.17-69.14l.5-177.46c.07-25.09-19.99-45.53-44.84-45.6l-.63,222.94c-.09,30.3,5.66,58.85,17.27,85.63,11.65,26.79,27.43,50.46,47.49,71.01,19.98,20.59,43.62,36.84,70.89,48.84,27.23,11.97,56.72,17.96,88.49,18.05"/>
      </g>
      <path class="cls-4" d="M1170,538.08c-.09-30.92,5.69-60.08,17.3-87.45,11.61-27.36,27.39-51.04,47.45-71.05,19.98-19.94,43.59-35.76,70.89-47.41,27.23-11.7,56.72-17.57,88.49-17.66,35.96-.1,69.84,7.99,101.62,24.23,31.81,16.28,57.93,37.75,78.43,64.44l-.35-123.96c-.07-25.09,19.99-45.53,44.8-45.6l.86,303.19c.09,31.5-5.65,60.78-17.27,87.87-11.61,27.13-27.43,50.61-47.49,70.63-19.98,19.94-43.78,35.76-71.32,47.41-27.54,11.7-56.88,17.53-88.02,17.62-31.76.09-61.29-5.58-88.59-17.12-27.37-11.5-51.06-27.19-71.16-47.01-20.17-19.9-36.08-43.29-47.85-70.36-11.76-27.03-17.71-56.27-17.8-87.77M1214.97,537.95c.07,24.4,4.91,47.43,14.56,69.06,9.61,21.71,22.6,40.51,38.8,56.52,16.24,16.01,35.26,28.74,57.23,38.17,21.85,9.47,45.12,14.16,69.7,14.09,24.58-.07,47.75-4.88,69.62-14.48,21.84-9.56,40.87-22.39,56.97-38.49,16.15-16.11,28.99-34.98,38.52-56.74,9.49-21.68,14.24-44.74,14.17-69.14-.07-24.36-4.95-47.39-14.56-69.06-9.65-21.71-22.6-40.51-38.84-56.52-16.2-16.01-35.3-28.74-57.19-38.17-21.93-9.47-45.12-14.16-69.71-14.09-24.58.07-47.83,4.88-69.62,14.48-21.91,9.56-40.87,22.39-57.01,38.5-16.11,16.11-28.99,34.98-38.48,56.74-9.53,21.72-14.24,44.78-14.17,69.14"/>
      <text class="cls-7" transform="translate(2221.38 888.95) rotate(-.41)"><tspan x="0" y="0">BY FENDESA</tspan></text>
      <g>
        <path class="cls-4" d="M2892.96,327.2c30.56-.09,59.31,5.66,86.33,17.3,27.02,11.68,50.87,27.56,71.59,47.75,20.75,20.15,37.17,43.39,49.2,69.73,12.07,26.34,18.13,54.44,18.22,84.32l.62,219.77c-24.85.07-44.99-19.97-45.06-44.7l-.49-174.94c-.07-23.97-4.95-46.68-14.6-68.08-9.65-21.36-22.56-39.89-38.8-55.68-16.24-15.78-35.3-28.33-57.19-37.66-21.93-9.3-45.16-13.95-69.7-13.88-24.62.07-47.79,4.85-69.66,14.28-21.84,9.46-40.83,22.11-56.98,37.99-16.15,15.88-28.99,34.48-38.48,55.9-9.53,21.45-14.24,44.18-14.18,68.16l.49,174.94c.07,24.74-19.99,44.89-44.84,44.96l-.62-219.77c-.08-29.87,5.66-58.01,17.28-84.42,11.65-26.4,27.43-49.74,47.49-70,19.98-20.3,43.62-36.31,70.89-48.15,27.23-11.8,56.72-17.7,88.49-17.79"/>
        <g>
          <path class="cls-4" d="M2716.24,458.83l.09-.24-.19,65.83c0,2.81.07,5.59.16,8.37l-44.99-.13c-.07-2.78-.11-5.56-.1-8.37l.97-344.24c24.85.07,44.86,23.23,44.78,51.76l-.5,176.15-.08-.62c-.95,16.84-.83,34.59-.15,51.49Z"/>
          <path class="cls-4" d="M2716.24,458.83l.09-.24-.19,65.83c0,2.81.07,5.59.16,8.37l-44.99-.13c-.07-2.78-.11-5.56-.1-8.37l.97-344.24c24.85.07,44.86,23.23,44.78,51.76l-.5,176.15-.08-.62c-.95,16.84-.83,34.59-.15,51.49Z"/>
          <path class="cls-4" d="M2716.24,458.83l.09-.24-.19,65.83c0,2.81.07,5.59.16,8.37l-44.99-.13c-.07-2.78-.11-5.56-.1-8.37l.97-344.24c24.85.07,44.86,23.23,44.78,51.76l-.5,176.15-.08-.62c-.95,16.84-.83,34.59-.15,51.49Z"/>
        </g>
        <path class="cls-4" d="M2225.79,397.65c-15.3,13.55-22.93,31.28-22.93,53.18s7.63,40.36,22.93,55.34c15.29,15,34.09,22.49,56.45,22.49h198.47c16.45,0,31.89,3.02,46.31,9.07,14.4,6.06,27.04,14.42,37.92,25.08,10.88,10.68,19.41,23.07,25.58,37.18,6.17,14.13,9.26,29.27,9.26,45.4s-3.08,31.57-9.26,46.27c-6.17,14.7-14.7,27.53-25.58,38.48-10.89,10.96-23.52,19.75-37.92,26.38-14.42,6.63-29.86,9.94-46.31,9.94h-321.96c0-23.88,19.36-43.23,43.24-43.23h278.72c19.99,0,37.48-7.49,52.48-22.49,14.99-14.99,22.49-33.43,22.49-55.35s-7.5-39.63-22.49-53.18c-15-13.55-32.5-20.33-52.48-20.33h-198.47c-17.64,0-33.96-3.31-48.96-9.95-14.99-6.62-28.09-15.41-39.25-26.38-11.18-10.94-19.85-23.78-26.02-38.48-6.17-14.71-9.26-30.12-9.26-46.27s3.09-31.27,9.26-45.4c6.17-14.12,14.84-26.51,26.02-37.18,11.16-10.66,24.25-19.02,39.25-25.08,15-6.05,31.32-9.08,48.96-9.08h317.54c0,23.88-19.36,43.23-43.23,43.23h-274.31c-22.36,0-41.17,6.78-56.45,20.33Z"/>
        <path class="cls-4" d="M4121.4,548.97c.09,30.92-5.69,60.08-17.3,87.45-11.61,27.36-27.39,51.04-47.45,71.05-19.98,19.94-43.59,35.76-70.89,47.41-27.23,11.7-56.72,17.57-88.49,17.66-35.96.1-69.84-7.99-101.62-24.23-31.81-16.28-57.93-37.75-78.43-64.44l-1.08,257.42c.07,25.09-19.33,40.15-44.14,40.22l-.08-431.27c-.09-31.5,5.65-60.78,17.27-87.87,11.61-27.13,27.43-50.61,47.49-70.63,19.98-19.94,43.78-35.76,71.32-47.41,27.54-11.7,56.88-17.53,88.02-17.62,31.76-.09,61.29,5.58,88.59,17.12,27.37,11.5,51.06,27.19,71.16,47.01,20.17,19.9,36.08,43.29,47.85,70.36,11.76,27.03,17.71,56.27,17.8,87.77M4076.43,549.09c-.07-24.4-4.91-47.43-14.56-69.06-9.61-21.71-22.6-40.51-38.8-56.52-16.24-16.01-35.26-28.74-57.23-38.17-21.85-9.47-45.12-14.16-69.7-14.09-24.58.07-47.75,4.88-69.62,14.48-21.84,9.56-40.87,22.39-56.97,38.49-16.15,16.11-28.99,34.98-38.52,56.74-9.49,21.68-14.24,44.74-14.17,69.14.07,24.36,4.95,47.39,14.56,69.06,9.65,21.71,22.6,40.51,38.84,56.52,16.2,16.01,35.3,28.74,57.19,38.17,21.93,9.47,45.12,14.16,69.71,14.09,24.58-.07,47.83-4.88,69.62-14.48,21.91-9.56,40.87-22.39,57.01-38.5,16.11-16.11,28.99-34.98,38.48-56.74,9.53-21.72,14.24-44.78,14.17-69.14"/>
      </g>
      <g>
        <path class="cls-4" d="M3235.91,800.85c-37.51,0-68.03-30.52-68.03-68.04s30.52-68.04,68.03-68.04,68.05,30.53,68.05,68.04-30.53,68.04-68.05,68.04Z"/>
        <path class="cls-4" d="M3541.38,800.85c-37.52,0-68.05-30.52-68.05-68.04s30.53-68.04,68.05-68.04,68.03,30.53,68.03,68.04-30.52,68.04-68.03,68.04Z"/>
        <path class="cls-4" d="M3541.38,743.3h-290.32c-8.12,0-15.86-3.92-20.69-10.49-4.83-6.63-6.22-15.2-3.73-22.96l38.98-95.8c2.19-5.36,8.3-7.94,13.68-5.76,5.36,2.19,7.94,8.3,5.76,13.68l-38.71,95.05c-.18.65.07,2.21.95,3.41.88,1.19,2.26,1.9,3.76,1.9h290.32c5.79,0,10.49,4.7,10.49,10.49s-4.69,10.49-10.49,10.49Z"/>
        <path class="cls-4" d="M3630.93,361.89c-4.81-6.56-12.53-10.47-20.68-10.47l-437.24.15-20.55-47.07c-1.67-3.82-5.44-6.29-9.61-6.29h-97.17c-5.79,0-10.49,4.7-10.49,10.49s4.7,10.49,10.49,10.49h90.3l128.23,293.81c4.04,9.42,13.27,15.5,23.54,15.5h251.23c11.22,0,21.05-7.19,24.45-17.92l71.26-225.8c2.45-7.77,1.04-16.32-3.78-22.88ZM3517.57,567.77h-214.51c-5.8,0-10.49-4.7-10.49-10.49s4.69-10.49,10.49-10.49h214.51c5.8,0,10.49,4.7,10.49,10.49s-4.69,10.49-10.49,10.49ZM3535.88,501.53h-251.12c-5.79,0-10.49-4.7-10.49-10.49s4.7-10.49,10.49-10.49h251.12c5.79,0,10.49,4.7,10.49,10.49s-4.7,10.49-10.49,10.49ZM3550.9,435.28h-281.17c-5.79,0-10.49-4.7-10.49-10.49s4.69-10.49,10.49-10.49h281.17c5.79,0,10.49,4.69,10.49,10.49s-4.69,10.49-10.49,10.49Z"/>
        <path class="cls-4" d="M3065.45,309.41c0,9.13-7.41,16.54-16.55,16.54s-16.54-7.41-16.54-16.54,7.41-16.55,16.54-16.55,16.55,7.41,16.55,16.55Z"/>
      </g>
      <g>
        <path class="cls-5" d="M3299.15,478.27c-.41,0-.8-.33-.97-.88-4.45-14.39-10.46-26.82-17.86-36.94-20.26-27.74-46.43-32.1-71.74-36.32-25.18-4.2-48.97-8.16-63.17-35.61-3.6-6.95-9.18-19.51-6.19-25.55,1.2-2.42,3.6-3.54,7.13-3.31.58.04,1.03.71,1,1.51-.03.8-.51,1.43-1.1,1.38-1.89-.12-4.34.13-5.28,2.05-1.59,3.21.83,11.95,6.16,22.26,13.67,26.41,37,30.3,61.71,34.42,25.66,4.28,52.2,8.7,72.97,37.14,7.59,10.39,13.75,23.12,18.31,37.85.23.73-.02,1.58-.56,1.89-.13.08-.27.12-.41.12Z"/>
        <path class="cls-1" d="M3556.38,641.03l-196.49-191.6c-4.14-4.04-10.07-5.17-15.26-2.91l-104.86,45.78c-8.84,3.86-11.88,15.65-6.16,23.85l171.14,245.03c4.73,6.77,13.62,8.27,20.05,3.37l130.22-99.21c7.58-5.78,8.24-17.6,1.36-24.31ZM3331.68,516.79c-6.62,4.78-17.06.56-23.31-9.43-6.25-9.99-5.95-21.96.67-26.74,6.62-4.78,17.06-.56,23.31,9.43,6.25,9.99,5.95,21.96-.67,26.74Z"/>
        <path class="cls-5" d="M3308.11,484.15c-.26,0-.52-.13-.71-.38-.39-.5-.39-1.32,0-1.82.08-.11,8.48-10.98,8.44-25.49-.03-8.91-3.19-17.39-9.42-25.21-13.2-16.58-48.21-35.79-79.11-52.73-18.86-10.34-36.67-20.11-48.36-28.53-2.65-1.91-5.46-3.72-8.34-5.39-.51-.29-.73-1.06-.5-1.7.23-.65.82-.94,1.33-.64,2.93,1.7,5.79,3.55,8.5,5.49,11.6,8.35,29.36,18.1,48.17,28.41,31.06,17.03,66.26,36.34,79.73,53.26,6.63,8.33,10,17.43,10.02,27.07.03,15.59-8.67,26.83-9.04,27.3-.2.25-.45.37-.71.37Z"/>
        <path class="cls-2" d="M3556.38,641.03l-196.49-191.6c-4.14-4.04-10.07-5.17-15.25-2.91l-9.34,4.08c2.44,8.91,6.1,18.93,11.68,29.16,29.03,53.22,76.64,50.93,87.65,87.86,9.75,32.73-22.96,50.3-27.27,96.23-2.15,22.95,2.76,53.48,29.1,91.83l118.57-90.34c7.58-5.78,8.24-17.6,1.36-24.31Z"/>
        <path class="cls-3" d="M3380.06,575.81c10.76,17.8,8.54,32.56-.04,38.55-9.03,6.3-22,1.58-31.66-14.39-9.18-15.18-9.67-31.22.46-38.28,10.22-7.13,22.45-.4,31.24,14.12ZM3358.35,592.26c5.38,8.9,11.36,13.85,15.37,11.05,3.92-2.74,2.36-9.83-3.42-19.39-5.22-8.64-10.9-14.17-15.19-11.18-4.11,2.86-1.9,11.01,3.24,19.51ZM3402.27,649.45l-19.16-111.69,7.48-5.22,19.07,111.75-7.39,5.16ZM3444.12,581.37c10.76,17.8,8.54,32.57-.04,38.55-8.94,6.24-21.91,1.51-31.66-14.39-9.18-15.18-9.67-31.22.46-38.28,10.22-7.13,22.45-.4,31.24,14.12ZM3422.5,597.75c5.29,8.96,11.27,13.91,15.28,11.11,3.92-2.74,2.36-9.83-3.42-19.39-5.22-8.64-10.81-14.23-15.1-11.24-4.2,2.93-1.91,11.01,3.24,19.51Z"/>
      </g>
      <path class="cls-6" d="M1311.26,642.47c20.8,29.05,56.36,46.93,92.09,46.29,35.73-.64,70.63-19.77,90.38-49.55"/>
    </g>
  </g>
</svg>